PathFileType	4	(X/Y/Z)	/Users/itak/Documents/Research/Walk-IL/dataset/trc/00542_00009.trc
DataRate	CameraRate	NumFrames	NumMarkers	Units	OrigDataRate	OrigDataStartFrame	OrigNumFrames
100.000000	100.000000	4	53	mm	100.000000	568	910
Frame#	Time	RPSI			LPSI			L3			STRN			T10			C7			CLAV			RBAK			LBAK			LSHO			LUPA			LAEL			LAOL			LWTS			LWPS			LFRA			LIFD			LHPS			LHTS			RSHO			RUPA			RAEL			RAOL			RWTS			RWPS			RFRA			RIFD			RHTS			RHPS			RBHD			LFHD			RFHD			LBHD			LHIP			RHIP			RASI			LASI			LKNE			LTHI			LANK			LTIP			LTOE			LMT1			LMT5			LHEE			RKNE			RTHI			RANK			RTIP			RTOE			RMT1			RMT5			RHEE			
		X1	Y1	Z1	X2	Y2	Z2	X3	Y3	Z3	X4	Y4	Z4	X5	Y5	Z5	X6	Y6	Z6	X7	Y7	Z7	X8	Y8	Z8	X9	Y9	Z9	X10	Y10	Z10	X11	Y11	Z11	X12	Y12	Z12	X13	Y13	Z13	X14	Y14	Z14	X15	Y15	Z15	X16	Y16	Z16	X17	Y17	Z17	X18	Y18	Z18	X19	Y19	Z19	X20	Y20	Z20	X21	Y21	Z21	X22	Y22	Z22	X23	Y23	Z23	X24	Y24	Z24	X25	Y25	Z25	X26	Y26	Z26	X27	Y27	Z27	X28	Y28	Z28	X29	Y29	Z29	X30	Y30	Z30	X31	Y31	Z31	X32	Y32	Z32	X33	Y33	Z33	X34	Y34	Z34	X35	Y35	Z35	X36	Y36	Z36	X37	Y37	Z37	X38	Y38	Z38	X39	Y39	Z39	X40	Y40	Z40	X41	Y41	Z41	X42	Y42	Z42	X43	Y43	Z43	X44	Y44	Z44	X45	Y45	Z45	X46	Y46	Z46	X47	Y47	Z47	X48	Y48	Z48	X49	Y49	Z49	X50	Y50	Z50	X51	Y51	Z51	X52	Y52	Z52	X53	Y53	Z53	

569	5.68	290.0065307617188	1014.650695800781	459.9623413085938	289.6347045898438	1019.77392578125	326.5076293945312	294.3971862792969	1116.000854492188	393.1469421386719	531.161865234375	1298.983276367188	381.7240905761719	285.7783813476562	1241.332397460938	393.7890930175781	341.9612426757812	1513.755493164062	404.22119140625	513.8592529296875	1410.254516601562	383.8623352050781	276.1880798339844	1390.647827148438	496.636474609375	301.7232360839844	1462.469360351562	313.4771423339844	398.2670288085938	1484.819946289062	228.6397247314453	392.3594360351562	1362.1591796875	144.7708892822266	437.1769104003906	1148.269897460938	108.0572204589844	348.9508972167969	1122.444458007812	153.1261901855469	590.7272338867188	943.0431518554688	154.3780517578125	555.836181640625	906.8621215820312	82.67391967773438	480.6644592285156	1071.771362304688	100.5335922241211	643.1907348632812	780.9695434570312	150.2959594726562	582.4904174804688	853.1819458007812	91.75013732910156	630.5540771484375	875.3374633789062	134.4822387695312	413.2876586914062	1473.338745117188	555.467529296875	400.1614990234375	1409.786499023438	625.155029296875	397.0361633300781	1119.847778320312	671.4451293945312	340.225830078125	1102.130004882812	648.492431640625	530.1058959960938	900.8173217773438	627.1538696289062	492.4010620117188	881.71337890625	696.335205078125	408.5498352050781	1065.006103515625	679.4778442382812	545.6439819335938	728.924072265625	631.44482421875	562.128173828125	810.8418579101562	641.0052490234375	510.3013916015625	807.8231811523438	694.1016235351562	432.7099304199219	1692.1337890625	464.6898193359375	583.2730102539062	1707.600463867188	321.7681579589844	572.6904296875	1705.548583984375	465.7560424804688	451.601318359375	1692.230224609375	300.4945983886719	419.1930847167969	949.4937133789062	191.7060241699219	417.9116516113281	941.2708129882812	579.6193237304688	501.1940002441406	974.63427734375	520.5703735351562	496.0966186523438	973.3607788085938	244.6599731445312	507.3182373046875	506.388427734375	197.0041656494141	484.3474426269531	676.3202514648438	184.6056518554688	188.9573059082031	135.9701690673828	218.3180694580078	323.7023010253906	322.2411499023438	205.2698974609375	384.2308654785156	55.70054244995117	202.9778900146484	333.844482421875	75.54534149169922	259.4556579589844	285.6247253417969	87.52890014648438	166.2119293212891	149.9130249023438	163.1374969482422	291.3253479003906	460.9190368652344	497.6132507324219	505.0714416503906	462.7538757324219	786.530517578125	566.1736450195312	376.7691650390625	38.70721817016602	452.2938537597656	462.3396911621094	355.0035400390625	479.9160461425781	600.08984375	42.5079231262207	422.2214965820312	538.073974609375	44.25293350219727	378.9508361816406	507.6558837890625	41.48892211914062	479.6165161132812	325.8196716308594	34.36903762817383	391.0245361328125	
570	5.69	293.0650634765625	1014.481872558594	460.0756225585938	292.7587585449219	1019.815551757812	326.6535949707031	297.6683959960938	1116.124755859375	393.5443725585938	534.3557739257812	1299.011596679688	382.4279479980469	288.8824462890625	1241.47998046875	394.5495300292969	345.3321838378906	1513.859375	404.9743347167969	517.103271484375	1410.261352539062	384.4743957519531	279.5437927246094	1390.807739257812	497.4474792480469	304.955078125	1462.556518554688	314.3186645507812	401.3930969238281	1484.75439453125	229.2955017089844	394.9418029785156	1362.0751953125	145.4889678955078	438.7627868652344	1148.036987304688	108.6659317016602	350.6636352539062	1122.530639648438	154.0559997558594	592.0519409179688	942.5771484375	154.5918884277344	556.9028930664062	906.4608764648438	82.97181701660156	482.0663146972656	1071.468383789062	101.0416641235352	644.2796630859375	780.4256591796875	150.3470764160156	583.487548828125	852.7319946289062	91.97557067871094	631.76220703125	874.83544921875	134.4559020996094	416.7411499023438	1473.441528320312	556.163330078125	403.6054382324219	1409.896484375	625.8667602539062	400.0436401367188	1119.961303710938	672.1368408203125	343.2794799804688	1102.300537109375	649.1806640625	532.7752685546875	900.7036743164062	627.4730224609375	495.1509704589844	881.6018676757812	696.736328125	411.5527038574219	1065.044189453125	680.0648193359375	548.0157470703125	728.7749633789062	631.6349487304688	564.6441650390625	810.6373901367188	641.2532958984375	512.9216918945312	807.7147216796875	694.3953247070312	436.1914672851562	1692.266723632812	465.1336059570312	586.5894775390625	1707.52880859375	322.0001831054688	576.200927734375	1705.640869140625	465.9963073730469	454.8802490234375	1692.156982421875	300.9110717773438	422.597900390625	949.8651123046875	192.1049194335938	420.6726379394531	941.0718383789062	579.933349609375	504.1163940429688	974.4822387695312	521.117431640625	499.4161376953125	973.7699584960938	245.1696472167969	513.2462768554688	507.2870483398438	197.4612579345703	488.9842529296875	676.9864501953125	184.7241668701172	203.8373107910156	129.7067718505859	216.7639923095703	333.6558227539062	319.2984008789062	204.7946014404297	401.6007385253906	56.12554931640625	199.9795227050781	350.6276245117188	73.40542602539062	256.8848571777344	301.886474609375	84.98973083496094	163.8076629638672	164.1485137939453	154.9681854248047	290.2543029785156	462.06640625	497.3564453125	505.3924255371094	465.0552062988281	786.2628784179688	566.3402709960938	376.835205078125	38.76203155517578	452.2037048339844	463.0416259765625	354.7810363769531	480.0182495117188	600.101318359375	42.48577880859375	422.2286071777344	538.10107421875	44.2272834777832	378.9163208007812	507.6960754394531	41.51171112060547	479.5795288085938	325.8634338378906	34.32656860351562	390.9389343261719	
571	5.7	296.0848693847656	1014.306518554688	460.1712646484375	295.816650390625	1019.831298828125	326.787109375	300.9172973632812	1116.240112304688	393.8946228027344	537.5497436523438	1298.992309570312	383.0921936035156	291.9603271484375	1241.618530273438	395.2763671875	348.7047424316406	1513.94140625	405.6996459960938	520.355712890625	1410.225463867188	385.0625	282.8817138671875	1390.93994140625	498.216552734375	308.2013244628906	1462.633544921875	315.1200561523438	404.552734375	1484.669555664062	229.9220428466797	397.5493774414062	1361.959228515625	146.1944732666016	440.3215026855469	1147.732055664062	109.302360534668	352.3451232910156	1122.61474609375	155.0076751708984	593.1031494140625	941.8339233398438	154.8124847412109	557.647705078125	905.876220703125	83.26375579833984	483.3654174804688	1071.047729492188	101.5624084472656	644.8619995117188	779.532470703125	150.2979583740234	584.0960083007812	852.05908203125	92.14601898193359	632.5969848632812	874.0054931640625	134.4073028564453	420.1880493164062	1473.498168945312	556.8345947265625	407.0314025878906	1409.95263671875	626.5465698242188	403.0062561035156	1120.027709960938	672.7947998046875	346.282958984375	1102.417846679688	649.8201904296875	535.4169921875	900.5656127929688	627.774658203125	497.8476867675781	881.4593505859375	697.0961303710938	414.4944763183594	1065.024291992188	680.6094970703125	550.4078369140625	728.6043701171875	631.7869873046875	567.1536865234375	810.4156494140625	641.4802856445312	515.5036010742188	807.5641479492188	694.6492919921875	439.6680297851562	1692.359375	465.5660095214844	589.8923950195312	1707.444091796875	322.219482421875	579.7015380859375	1705.712036132812	466.2298583984375	458.1534423828125	1692.050537109375	301.3215637207031	425.94384765625	950.1905517578125	192.442138671875	423.4396362304688	940.8917846679688	580.19921875	507.0145263671875	974.3035278320312	521.5955810546875	502.6769104003906	974.13330078125	245.6176147460938	519.177001953125	508.1320190429688	198.0124053955078	493.5739135742188	677.5933227539062	184.8702850341797	219.165771484375	123.3571395874023	215.1263732910156	343.8895263671875	316.230224609375	204.2640380859375	419.2142028808594	56.49246597290039	197.7313385009766	367.5978393554688	71.34858703613281	254.8072814941406	318.6097412109375	82.26337432861328	161.7494506835938	178.7465972900391	146.8020324707031	288.8776550292969	463.200927734375	497.1095581054688	505.6929931640625	467.3176574707031	785.9887084960938	566.4805297851562	376.8999633789062	38.80926513671875	452.111328125	463.7128295898438	354.564453125	480.1116027832031	600.10986328125	42.46450805664062	422.2393798828125	538.1346435546875	44.21407699584961	378.8875427246094	507.7332763671875	41.52996826171875	479.55078125	325.9574584960938	34.30065536499023	390.815673828125	
572	5.71	299.0736694335938	1014.131896972656	460.2528686523438	298.8106689453125	1019.816833496094	326.9098815917969	304.1279296875	1116.3447265625	394.206787109375	540.7424926757812	1298.931396484375	383.7118835449219	295.0281982421875	1241.745483398438	395.9560852050781	352.077392578125	1514.003784179688	406.3933410644531	523.613037109375	1410.151123046875	385.6231689453125	286.1980895996094	1391.050048828125	498.9408264160156	311.4621276855469	1462.7041015625	315.8761901855469	407.7412719726562	1484.569946289062	230.5163726806641	400.1830444335938	1361.814697265625	146.88623046875	441.8671875	1147.364013671875	109.9669799804688	354.0031127929688	1122.699462890625	155.9902954101562	593.8895263671875	940.814697265625	155.0340118408203	558.0693359375	905.111572265625	83.54747009277344	484.5716247558594	1070.515747070312	102.0972595214844	644.9323120117188	778.2879638671875	150.1388702392578	584.3175659179688	851.1695556640625	92.25468444824219	633.0595703125	872.8480224609375	134.3372192382812	423.6271057128906	1473.510498046875	557.4776611328125	410.4377136230469	1409.958862304688	627.1907958984375	405.9501647949219	1120.048095703125	673.4141235351562	349.2499694824219	1102.48681640625	650.411376953125	538.0386352539062	900.39697265625	628.0596923828125	500.4991149902344	881.286865234375	697.4194946289062	417.3920288085938	1064.95458984375	681.1124267578125	552.8112182617188	728.4039306640625	631.9132080078125	569.6567993164062	810.170166015625	641.6817016601562	518.0515747070312	807.3707275390625	694.8720092773438	443.1453552246094	1692.41259765625	465.9886779785156	593.190185546875	1707.3466796875	322.4294738769531	583.1962280273438	1705.757202148438	466.4604797363281	461.4268493652344	1691.918212890625	301.7275085449219	429.2333679199219	950.4801635742188	192.7241821289062	426.2349243164062	940.71923828125	580.4049682617188	509.8923950195312	974.101318359375	522.0089721679688	505.8812866210938	974.4608154296875	246.0104217529297	525.1441040039062	508.9450073242188	198.6446838378906	498.1469421386719	678.1557006835938	185.0354919433594	234.8896026611328	117.0277099609375	213.4273071289062	354.3956298828125	313.1119689941406	203.6854858398438	437.0095520019531	56.83442306518555	196.19873046875	384.7042846679688	69.41527557373047	253.2074584960938	335.7362365722656	79.43726348876953	160.0301666259766	193.6570434570312	138.7273712158203	287.2277221679688	464.3289489746094	496.8754272460938	505.964599609375	469.5712280273438	785.7079467773438	566.5858154296875	376.9554138183594	38.85097885131836	452.0216674804688	464.3498229980469	354.35107421875	480.1960144042969	600.1160888671875	42.44270706176758	422.2534484863281	538.1715698242188	44.20783996582031	378.8645324707031	507.7651062011719	41.54343414306641	479.5301513671875	326.0851135253906	34.29938888549805	390.6754455566406	
